<svg xmlns="http://www.w3.org/2000/svg" width="71.159" height="48.276" viewBox="0 0 71.159 48.276">
  <g id="图层_2" data-name="图层 2" opacity="0.858">
    <g id="图层_2-2" data-name="图层 2">
      <path id="路径_3768" data-name="路径 3768" d="M539.092,281.012h-16.6V260.92l16.5.648Z" transform="translate(-467.933 -232.735)" fill="#005375"/>
      <path id="路径_3769" data-name="路径 3769" d="M479.875,291.715H475.49v-18.8l4.357.432Z" transform="translate(-425.841 -243.439)" fill="#005375"/>
      <path id="路径_3770" data-name="路径 3770" d="M436.458,299.743H432.49V281.92l3.943.324Z" transform="translate(-387.331 -251.467)" fill="#005375"/>
      <path id="路径_3771" data-name="路径 3771" d="M396.145,311.339H392.49V294.92l3.632.108Z" transform="translate(-351.507 -263.063)" fill="#005375"/>
      <path id="路径_3772" data-name="路径 3772" d="M358.727,319.367H355.49V303.92l3.216.108Z" transform="translate(-318.371 -271.091)" fill="#005375"/>
      <path id="路径_3773" data-name="路径 3773" d="M321.518,329.179H318.49V314.92l3.009.108Z" transform="translate(-285.234 -280.902)" fill="#005375"/>
      <path id="路径_3774" data-name="路径 3774" d="M289.2,336.315H286.49V322.92l2.7.216Z" transform="translate(-256.576 -288.038)" fill="#005375"/>
      <path id="路径_3775" data-name="路径 3775" d="M228.787,303.311h-2.3V285.92l2.283.108Z" transform="translate(-202.841 -255.035)" fill="#005375"/>
      <path id="路径_3776" data-name="路径 3776" d="M201.578,312.231H199.49V295.92l2.075.108Z" transform="translate(-178.66 -263.955)" fill="#005375"/>
      <path id="路径_3777" data-name="路径 3777" d="M177.369,321.151h-1.88V305.92l1.868.108Z" transform="translate(-157.166 -272.874)" fill="#005375"/>
      <path id="路径_3778" data-name="路径 3778" d="M124.265,281.9H122.49V261.92l1.764.108Z" transform="translate(-109.7 -233.627)" fill="#005375"/>
      <path id="路径_3779" data-name="路径 3779" d="M105.452,291.715H103.99v-18.8l1.452.108Z" transform="translate(-93.132 -243.439)" fill="#005375"/>
      <path id="路径_3780" data-name="路径 3780" d="M87.347,302.419H85.99v-17.5l1.349.108Z" transform="translate(-77.011 -254.143)" fill="#005375"/>
      <path id="路径_3781" data-name="路径 3781" d="M71.253,360.4H70V349.92l1.245.108Z" transform="translate(-62.691 -312.122)" fill="#005375"/>
      <path id="路径_3782" data-name="路径 3782" d="M55.253,394.293H54V387.92l1.245.108Z" transform="translate(-48.361 -346.017)" fill="#005375"/>
      <path id="路径_3783" data-name="路径 3783" d="M39.149,396.969H38V390.92l1.141.108Z" transform="translate(-34.032 -348.693)" fill="#005375"/>
      <path id="路径_3784" data-name="路径 3784" d="M25.044,400.537H24V394.92l1.038.108Z" transform="translate(-21.494 -352.261)" fill="#005375"/>
      <path id="路径_3785" data-name="路径 3785" d="M11.94,403.213H11V397.92l.933.108Z" transform="translate(-9.851 -354.937)" fill="#005375"/>
      <path id="路径_3786" data-name="路径 3786" d="M.835,405H0V399.92l.83.108Z" transform="translate(0 -356.721)" fill="#005375"/>
      <path id="路径_3787" data-name="路径 3787" d="M254.44,272.92l14,.756v2.052l-4.281-.191v1.487l-3.655-.217v1.02l-3.341-.262v14.151h-2.72Z" transform="translate(-227.872 -243.439)" fill="#005375"/>
      <path id="路径_3788" data-name="路径 3788" d="M143.46,244.92l14.935.972v1.62l-3.968-.216v1.4l-3.028-.108v1.3l-2.61-.108v1.3l-2.4-.108-.1,15.771H143.46Z" transform="translate(-128.48 -218.464)" fill="#005375"/>
      <path id="路径_3789" data-name="路径 3789" d="M175.49,201.96V197l5.43.315v5.053Z" transform="translate(-157.166 -175.72)" fill="#005375"/>
      <path id="路径_3790" data-name="路径 3790" d="M152.49,212.92l1.879.126V216.2l-1.879-.137Z" transform="translate(-136.568 -189.92)" fill="#005375"/>
      <path id="路径_3791" data-name="路径 3791" d="M130.49,222.98l1.671.1v1.944l-.731-.068v1.728l-.94-.148Z" transform="translate(-116.865 -198.894)" fill="#005375"/>
      <path id="路径_3792" data-name="路径 3792" d="M155.49,176.906l1.671.108v-1.852l1.044.086v-1.855l-2.715-.244Z" transform="translate(-139.254 -154.446)" fill="#005375"/>
      <path id="路径_3793" data-name="路径 3793" d="M186.49,159.417V155.36l3.237.169v4.082Z" transform="translate(-167.017 -138.578)" fill="#005375"/>
      <path id="路径_3794" data-name="路径 3794" d="M175.49,50.4h1.149l-.574-12.173Z" transform="translate(-157.166 -34.1)" fill="#005375"/>
      <path id="路径_3795" data-name="路径 3795" d="M167.843,0l.473.993,1.059.159-.765.773.181,1.091-.947-.515-.947.515.181-1.091-.766-.773,1.059-.159Z" transform="translate(-148.945)" fill="#005375"/>
    </g>
  </g>
</svg>
