{
  "accessors": [
    {
      "name": "YuTu02_1_0_positions",
      "componentType": 5126,
      "count": 15886,
      "min": [
        -79.19819641113281,
        -0.004800000227987766,
        -58.234100341796875
      ],
      "max": [
        79.31770324707031,
        60.8765983581543,
        36.93669891357422
      ],
      "type": "VEC3",
      "bufferView": 0,
      "byteOffset": 0
    },
    {
      "name": "YuTu02_1_0_normals",
      "componentType": 5126,
      "count": 15886,
      "min": [
        -1,
        -1,
        -1
      ],
      "max": [
        1,
        1,
        1
      ],
      "type": "VEC3",
      "bufferView": 1,
      "byteOffset": 0
    },
    {
      "name": "YuTu02_1_0_texcoords",
      "componentType": 5126,
      "count": 15886,
      "min": [
        0.0020000000949949026,
        0.0020000000949949026
      ],
      "max": [
        0.9527000188827515,
        0.9980000257492065
      ],
      "type": "VEC2",
      "bufferView": 2,
      "byteOffset": 0
    },
    {
      "name": "YuTu02_1_0_indices",
      "componentType": 5123,
      "count": 41988,
      "min": [
        0
      ],
      "max": [
        15885
      ],
      "type": "SCALAR",
      "bufferView": 3,
      "byteOffset": 0
    },
    {
      "name": "YuTu01_1_0_positions",
      "componentType": 5126,
      "count": 13866,
      "min": [
        -28.17690086364746,
        11.476400375366211,
        -56.000999450683594
      ],
      "max": [
        28.29640007019043,
        115.35079956054688,
        34.95600128173828
      ],
      "type": "VEC3",
      "bufferView": 0,
      "byteOffset": 190632
    },
    {
      "name": "YuTu01_1_0_normals",
      "componentType": 5126,
      "count": 13866,
      "min": [
        -1,
        -1,
        -1
      ],
      "max": [
        1,
        1,
        1
      ],
      "type": "VEC3",
      "bufferView": 1,
      "byteOffset": 190632
    },
    {
      "name": "YuTu01_1_0_texcoords",
      "componentType": 5126,
      "count": 13866,
      "min": [
        0.0020000000949949026,
        0.0020000000949949026
      ],
      "max": [
        0.9979000091552734,
        0.9980000257492065
      ],
      "type": "VEC2",
      "bufferView": 2,
      "byteOffset": 127088
    },
    {
      "name": "YuTu01_1_0_indices",
      "componentType": 5123,
      "count": 48036,
      "min": [
        0
      ],
      "max": [
        13865
      ],
      "type": "SCALAR",
      "bufferView": 3,
      "byteOffset": 83976
    }
  ],
  "asset": {
    "generator": "obj2gltf",
    "version": "2.0"
  },
  "buffers": [
    {
      "name": "YuTu",
      "byteLength": 2817028,
      "uri": "data:application/octet-stream;base64,"
    }
  ],
  "bufferViews": [
    {
      "name": "bufferView_0",
      "buffer": 0,
      "byteLength": 357024,
      "byteOffset": 0,
      "byteStride": 12,
      "target": 34962
    },
    {
      "name": "bufferView_1",
      "buffer": 0,
      "byteLength": 357024,
      "byteOffset": 357024,
      "byteStride": 12,
      "target": 34962
    },
    {
      "name": "bufferView_2",
      "buffer": 0,
      "byteLength": 238016,
      "byteOffset": 714048,
      "byteStride": 8,
      "target": 34962
    },
    {
      "name": "bufferView_3",
      "buffer": 0,
      "byteLength": 180048,
      "byteOffset": 952064,
      "target": 34963
    },
    {
      "buffer": 0,
      "byteOffset": 1132112,
      "byteLength": 767942
    },
    {
      "buffer": 0,
      "byteOffset": 1900054,
      "byteLength": 916971
    }
  ],
  "images": [
    {
      "name": "YuTu_YuTu02_albedo",
      "mimeType": "image/jpeg",
      "bufferView": 4
    },
    {
      "name": "YuTu_YuTu01_albedo",
      "mimeType": "image/jpeg",
      "bufferView": 5
    }
  ],
  "materials": [
    {
      "name": "YuTu02",
      "pbrMetallicRoughness": {
        "baseColorTexture": {
          "index": 0
        },
        "baseColorFactor": [
          1,
          1,
          1,
          1
        ],
        "metallicFactor": 0,
        "roughnessFactor": 0.957
      },
      "emissiveFactor": [
        0,
        0,
        0
      ],
      "alphaMode": "OPAQUE",
      "doubleSided": false
    },
    {
      "name": "YuTu01",
      "pbrMetallicRoughness": {
        "baseColorTexture": {
          "index": 1
        },
        "baseColorFactor": [
          1,
          1,
          1,
          1
        ],
        "metallicFactor": 0,
        "roughnessFactor": 0.957
      },
      "emissiveFactor": [
        0,
        0,
        0
      ],
      "alphaMode": "OPAQUE",
      "doubleSided": false
    }
  ],
  "meshes": [
    {
      "name": "YuTu02_1",
      "primitives": [
        {
          "attributes": {
            "POSITION": 0,
            "NORMAL": 1,
            "TEXCOORD_0": 2
          },
          "indices": 3,
          "material": 0,
          "mode": 4
        }
      ]
    },
    {
      "name": "YuTu01_1",
      "primitives": [
        {
          "attributes": {
            "POSITION": 4,
            "NORMAL": 5,
            "TEXCOORD_0": 6
          },
          "indices": 7,
          "material": 1,
          "mode": 4
        }
      ]
    }
  ],
  "nodes": [
    {
      "name": "YuTu02",
      "mesh": 0
    },
    {
      "name": "YuTu01",
      "mesh": 1
    }
  ],
  "samplers": [
    {
      "wrapS": 10497,
      "wrapT": 10497
    }
  ],
  "scene": 0,
  "scenes": [
    {
      "nodes": [
        0,
        1
      ]
    }
  ],
  "textures": [
    {
      "name": "YuTu_YuTu02_albedo",
      "sampler": 0,
      "source": 0
    },
    {
      "name": "YuTu_YuTu01_albedo",
      "sampler": 0,
      "source": 1
    }
  ]
}
