<?xml version="1.0" standalone="no"?><!DOCTYPE svg PUBLIC "-//W3C//DTD SVG 1.1//EN" "http://www.w3.org/Graphics/SVG/1.1/DTD/svg11.dtd"><svg t="1723611290632" class="icon" viewBox="0 0 1024 1024" version="1.1" xmlns="http://www.w3.org/2000/svg" p-id="9388" xmlns:xlink="http://www.w3.org/1999/xlink" width="200" height="200"><path d="M505.875122 337.798121l29.06522 16.747981c8.069811 4.647293 18.307151 1.899609 22.961494-6.119842l167.963271-290.106291c4.621105-8.016429 1.899609-18.254775-6.170203-22.865808L690.630692 18.703157c-8.069811-4.645278-18.302114-1.899609-22.961494 6.117827L499.706934 314.932312C495.083814 322.943705 497.805311 333.217304 505.875122 337.798121zM790.686481 214.333634l-36.249689 62.614564c100.47882 97.164073 145.161925 207.963831 102.18605 282.192599-59.113483 102.132668-261.353308 96.080309-451.688852-13.477552C214.603482 436.070131 108.251588 264.418436 167.396295 162.287783c46.420552-80.18544 181.114485-93.401116 328.934452-42.499462l36.081484-62.353695C346.671604-9.03556 169.398639 14.518177 104.741442 126.203277c-75.418289 130.265206 29.851856 332.732662 235.931187 463.42795L113.400474 982.20156c-4.626141 8.0124-1.901623 18.254775 6.168188 22.899046l29.062199 16.747981c5.251622 3.007546 10.956491 1.930832 15.914006-0.784621 3.016611 1.04549 6.331357 1.698165 9.872727 1.698165l658.388628 0c12.988045 0 23.518484-7.524908 23.518484-16.745966l0-33.502005c0-9.259333-10.527417-16.747981-23.518484-16.747981L206.303018 955.76618l192.563505-332.636977c216.542287 112.605696 445.027128 102.330082 520.414193-27.935124C980.165892 490.083074 923.151446 337.930066 790.686481 214.333634z" fill="#ffffff" p-id="9389"></path></svg>