<?xml version="1.0" standalone="no"?><!DOCTYPE svg PUBLIC "-//W3C//DTD SVG 1.1//EN" "http://www.w3.org/Graphics/SVG/1.1/DTD/svg11.dtd"><svg t="1726105501028" class="icon" viewBox="0 0 1024 1024" version="1.1" xmlns="http://www.w3.org/2000/svg" p-id="6458" width="200" height="200" xmlns:xlink="http://www.w3.org/1999/xlink"><path d="M583.68 0H296.96v71.68h286.72V0zM143.36 0H0v143.36h71.68V71.68h71.68V0zM71.68 296.96H0v286.72h71.68V296.96z m0 440.32H0v286.72h71.68v-286.72z m368.64 215.04H153.6v71.68h286.72v-71.68z m440.32 0h-286.72v71.68h286.72v-71.68z m143.36-225.28h-71.68v286.72h71.68v-286.72z m0-440.32h-71.68v286.72h71.68V286.72z m0-286.72h-286.72v71.68h215.04v61.44h71.68V0z" p-id="6459" fill="#1296db"></path></svg>